<svg data-name="Layer 1" xmlns="http://www.w3.org/2000/svg" viewBox="0 0 24 24"><path d="M5.09 4.84a2.57 2.57 0 0 1-1.92.71 2.44 2.44 0 0 1-1.84-.71 2.38 2.38 0 0 1-.7-1.72 2.32 2.32 0 0 1 .7-1.72A2.56 2.56 0 0 1 3.21.71a2.48 2.48 0 0 1 1.85.69 2.54 2.54 0 0 1 .73 1.72 2.37 2.37 0 0 1-.7 1.72zM.75 7.48h4.88v15.63H.75zm7.73 2.3q0-1.24-.09-2.3h4.22l.23 2.18h.09A7 7 0 0 1 14.61 8a5.17 5.17 0 0 1 3.15-.88 5.88 5.88 0 0 1 2.24.44 4.74 4.74 0 0 1 1.75 1.24 6 6 0 0 1 1.18 2.1 9.21 9.21 0 0 1 .43 3v9.23h-4.87v-8.69a4.69 4.69 0 0 0-.56-2.44 2 2 0 0 0-1.9-.94 2.26 2.26 0 0 0-1.62.57 3.37 3.37 0 0 0-.87 1.25 1.84 1.84 0 0 0-.12.55v9.67H8.53V12.47q0-1.47-.05-2.69z"/></svg>