<svg data-name="Layer 1" xmlns="http://www.w3.org/2000/svg" viewBox="0 0 24 24"><path d="M24 4.54c-.16.25-.33.49-.52.73a8 8 0 0 1-.6.68c-.21.21-.44.42-.65.6s-.45.37-.7.57v.3a2 2 0 0 1 0 .35 14.07 14.07 0 0 1-.92 4.92A14.34 14.34 0 0 1 18 17.21a13.8 13.8 0 0 1-4.41 3.29 13.58 13.58 0 0 1-6 1.27 15.66 15.66 0 0 1-2-.14 12.83 12.83 0 0 1-1.95-.42 11.93 11.93 0 0 1-1.87-.7 15 15 0 0 1-1.7-1h1.16a10.7 10.7 0 0 0 1.71-.14A8.26 8.26 0 0 0 4.45 19a7.3 7.3 0 0 0 1.5-.63 8.15 8.15 0 0 0 1.32-.92 4.59 4.59 0 0 1-2.86-1 4.16 4.16 0 0 1-1.05-1.05 5.09 5.09 0 0 1-.69-1.4 3.87 3.87 0 0 0 .47.07 3.76 3.76 0 0 0 .47 0 4.91 4.91 0 0 0 .65 0 5.19 5.19 0 0 0 .65-.14 4.52 4.52 0 0 1-2.81-1.69 4.44 4.44 0 0 1-.87-1.43 4.84 4.84 0 0 1-.3-1.71l.54.25.53.19.58.1a3.09 3.09 0 0 0 .58 0 5.91 5.91 0 0 1-.89-.77 4.21 4.21 0 0 1-.7-1 5.73 5.73 0 0 1-.45-1.12A4.32 4.32 0 0 1 1 5.61 4.91 4.91 0 0 1 1 5a5.19 5.19 0 0 1 .14-.65c.06-.19.14-.38.21-.58a2.77 2.77 0 0 1 .3-.58 12.87 12.87 0 0 0 2 2 13.51 13.51 0 0 0 2.48 1.56 12 12 0 0 0 2.69 1.08 14.9 14.9 0 0 0 3 .47 5.27 5.27 0 0 1-.07-.57v-.57a5 5 0 0 1 .37-1.92 4.7 4.7 0 0 1 1-1.55 5.78 5.78 0 0 1 1.58-1.05 4.71 4.71 0 0 1 1.92-.4 4.29 4.29 0 0 1 1 .12 6.91 6.91 0 0 1 1 .3 4 4 0 0 1 .87.49 7.75 7.75 0 0 1 .73.63 5.21 5.21 0 0 0 .78-.16 4.36 4.36 0 0 0 .8-.3c.25-.1.5-.2.75-.33l.75-.37a6.09 6.09 0 0 1-.35.82 4.15 4.15 0 0 1-.49.73 3.9 3.9 0 0 1-.6.65 5.43 5.43 0 0 1-.7.52c.25 0 .49-.07.73-.12s.48-.1.73-.17a5.68 5.68 0 0 0 .68-.23z"/></svg>